HIERARCHY
ROOT Hips
{
	OFFSET	0.00	0.00	0.00
	CHANNELS 6 Xposition Yposition Zposition Zrotation Xrotation Yrotation
	JOINT LeftUpLeg
	{
		OFFSET	 0.126116	-0.014019	-0.065224
		CHANNELS 3 Zrotation Xrotation Yrotation
		JOINT LeftLeg
		{
			OFFSET	 0.000000	 0.000000	 0.569914
			CHANNELS 3 Zrotation Xrotation Yrotation
			JOINT LeftFoot
			{
				OFFSET	 0.000000	 0.000000	 0.544423
				CHANNELS 3 Zrotation Xrotation Yrotation
				JOINT LeftToeBase
				{
					OFFSET	 0.000000	 0.000000	 0.207117
					CHANNELS 3 Zrotation Xrotation Yrotation
					End Site
					{
						OFFSET	 0.000000	 0.000000	 0.207117
					}
				}
			}
		}
	}
	JOINT RightUpLeg
	{
		OFFSET	-0.124023	-0.008373	-0.065224
		CHANNELS 3 Zrotation Xrotation Yrotation
		JOINT RightLeg
		{
			OFFSET	 0.000000	 0.000000	 0.570047
			CHANNELS 3 Zrotation Xrotation Yrotation
			JOINT RightFoot
			{
				OFFSET	 0.000000	 0.000000	 0.544354
				CHANNELS 3 Zrotation Xrotation Yrotation
				JOINT RightToeBase
				{
					OFFSET	 0.000000	 0.000000	 0.207540
					CHANNELS 3 Zrotation Xrotation Yrotation
					End Site
					{
						OFFSET	 0.000000	 0.000000	 0.207540
					}
				}
			}
		}
	}
	JOINT Spine
	{
		OFFSET	 0.000184	-0.007763	 0.117403
		CHANNELS 3 Zrotation Xrotation Yrotation
		JOINT Spine1
		{
			OFFSET	 0.000000	 0.000000	 0.137269
			CHANNELS 3 Zrotation Xrotation Yrotation
			JOINT Spine2
			{
				OFFSET	 0.000000	 0.000000	 0.156879
				CHANNELS 3 Zrotation Xrotation Yrotation
				JOINT LeftShoulder
				{
					OFFSET	 0.080501	-0.002496	 0.160144
					CHANNELS 3 Zrotation Xrotation Yrotation
					JOINT LeftArm
					{
						OFFSET	 0.000000	 0.000000	 0.164363
						CHANNELS 3 Zrotation Xrotation Yrotation
						JOINT LeftForeArm
						{
							OFFSET	 0.000000	 0.000000	 0.364576
							CHANNELS 3 Zrotation Xrotation Yrotation
							JOINT LeftHand
							{
								OFFSET	 0.000000	 0.000000	 0.360812
								CHANNELS 3 Zrotation Xrotation Yrotation
								JOINT LeftHandIndex1
								{
									OFFSET	 0.000000	 0.000000	 0.086006
									CHANNELS 3 Zrotation Xrotation Yrotation
									JOINT LeftHandIndex2
									{
										OFFSET	 0.000000	 0.000000	 0.047236
										CHANNELS 3 Zrotation Xrotation Yrotation
										JOINT LeftHandIndex3
										{
											OFFSET	-0.004284	-0.000551	 0.038166
											CHANNELS 3 Zrotation Xrotation Yrotation
											End Site
											{
												OFFSET	-0.004284	-0.000551	 0.038166
											}
										}
									}
								}
							}
						}
					}
				}
				JOINT Neck
				{
					OFFSET	 0.000000	 0.000000	 0.176489
					CHANNELS 3 Zrotation Xrotation Yrotation
					JOINT Head
					{
						OFFSET	 0.000000	-0.001747	 0.077940
						CHANNELS 3 Zrotation Xrotation Yrotation
						End Site
						{
							OFFSET	 0.000000	-0.001747	 0.077940
						}
					}
				}
				JOINT RightShoulder
				{
					OFFSET	-0.080363	 0.000306	 0.159706
					CHANNELS 3 Zrotation Xrotation Yrotation
					JOINT RightArm
					{
						OFFSET	 0.000000	 0.000000	 0.164196
						CHANNELS 3 Zrotation Xrotation Yrotation
						JOINT RightForeArm
						{
							OFFSET	 0.000000	 0.000000	 0.365611
							CHANNELS 3 Zrotation Xrotation Yrotation
							JOINT RightHand
							{
								OFFSET	 0.000000	 0.000000	 0.360648
								CHANNELS 3 Zrotation Xrotation Yrotation
								JOINT RightHandIndex1
								{
									OFFSET	 0.000000	 0.000000	 0.069977
									CHANNELS 3 Zrotation Xrotation Yrotation
									JOINT RightHandIndex2
									{
										OFFSET	 0.000000	 0.000000	 0.052305
										CHANNELS 3 Zrotation Xrotation Yrotation
										JOINT RightHandIndex3
										{
											OFFSET	 0.009002	-0.000782	 0.042196
											CHANNELS 3 Zrotation Xrotation Yrotation
											End Site
											{
												OFFSET	 0.009002	-0.000782	 0.042196
											}
										}
									}
								}
							}
						}
					}
				}
			}
		}
	}
}
MOTION
Frames:    10
Frame Time: 0.03333334
-1.380154	-9.724646	 0.630349	-19.611510	 8.014644	 1.693413	 4.522126	-22.017200	 174.191100	-1.646891	-39.948370	-0.194923	 0.063884	 84.609040	-0.534057	-2.385736	 28.474830	-0.000475	-2.487229	-22.896230	-178.752400	-0.120003	-40.862030	-0.004226	-0.183128	 85.535860	 0.421506	 2.407688	 17.349000	-0.225253	-7.713013	 8.860493	 0.120683	-12.215450	 6.737567	-1.956032	-14.299200	 3.957860	-0.454851	-115.596100	 89.397040	-153.634900	 56.144870	 60.050480	-78.301800	-3.701587	-4.409502	-20.736420	 6.443435	-5.051093	-5.352631	-3.812334	 37.924440	-2.927599	-2.450526	 36.184240	 0.754587	-1.378229	 35.397820	-2.634230	 0.458812	 2.660044	-0.638576	-3.113709	 6.765598	 0.560361	 94.723570	 86.914150	 171.582600	-53.517010	 70.344840	 71.697850	-3.199297	-13.004780	 25.797860	-23.673640	-6.011766	 9.622340	 6.437017	 35.671460	-0.771858	 2.830251	 35.756010	-7.813440	-2.350882	 35.473990	 5.254307
-1.379208	-9.724001	 0.634033	-19.638300	 8.049408	 1.789984	 4.504700	-22.341000	 174.118000	-1.734562	-40.567840	-0.278177	 0.020562	 84.814700	-0.575005	-2.385614	 28.501490	-0.001053	-2.452396	-23.215760	-178.768000	-0.089153	-41.333290	 0.047674	-0.429190	 85.711700	 0.729379	 2.407681	 17.691870	-0.218557	-7.709314	 9.147826	 0.063234	-12.199600	 6.966109	-1.973440	-14.293230	 4.207276	-0.423338	-115.591600	 89.390910	-153.611800	 55.846700	 59.306050	-77.939700	-3.727360	-4.197978	-21.293560	 5.719443	-5.047058	-5.357253	-3.812334	 37.924440	-2.927599	-2.450526	 36.184240	 0.754587	-1.378229	 35.397820	-2.634230	 0.447069	 2.538654	-0.597262	-3.111518	 6.809299	 0.499465	 94.720190	 86.894740	 171.558900	-53.363190	 69.797080	 71.838380	-3.143119	-12.923290	 26.176290	-23.306390	-6.011241	 9.623612	 6.437017	 35.671460	-0.771858	 2.830251	 35.756010	-7.813440	-2.350882	 35.473990	 5.254307
-1.377927	-9.722708	 0.631923	-19.686430	 8.034317	 1.830001	 4.517429	-22.894430	 174.063100	-1.788575	-41.320640	-0.320377	 0.215509	 85.043620	-0.804912	-2.385199	 28.594810	-0.003068	-2.424760	-23.620420	-178.738200	-0.061602	-41.965590	 0.100502	-0.701463	 85.902800	 1.057960	 2.407638	 17.984840	-0.212821	-7.663222	 9.487253	 0.051411	-12.133300	 7.190856	-1.977787	-14.246220	 4.449282	-0.391626	-115.061000	 89.367890	-154.092200	 55.370610	 58.417740	-77.564060	-3.791084	-3.954854	-21.995450	 4.913660	-5.036242	-5.363677	-3.812334	 37.924440	-2.927599	-2.450526	 36.184240	 0.754587	-1.378229	 35.397820	-2.634230	 0.427255	 2.326138	-0.570912	-3.108281	 6.908279	 0.427204	 94.738740	 86.882600	 171.508500	-52.998560	 69.096150	 71.848240	-3.128918	-12.932330	 26.805740	-22.943940	-6.009130	 9.626563	 6.437017	 35.671460	-0.771858	 2.830251	 35.756010	-7.813440	-2.350882	 35.473990	 5.254307
-1.376252	-9.720695	 0.629017	-19.776460	 8.075902	 1.847547	 4.591976	-23.566330	 174.023800	-1.867383	-42.299580	-0.346244	 0.449918	 85.326520	-1.047695	-2.384994	 28.640570	-0.004058	-2.405082	-24.237870	-178.671800	-0.055361	-42.845380	 0.142741	-1.027979	 86.134360	 1.420797	 2.407562	 18.310080	-0.206447	-7.580585	 9.902321	 0.071337	-12.019600	 7.388600	-1.972777	-14.153400	 4.664580	-0.362254	-114.252000	 89.327110	-154.817500	 54.590990	 57.643650	-77.155110	-3.506035	-3.976801	-22.920280	 4.779102	-5.018442	-5.368326	-3.812334	 37.924440	-2.927599	-2.450526	 36.184240	 0.754587	-1.378229	 35.397820	-2.634230	 0.397848	 2.040269	-0.554034	-3.109253	 7.014519	 0.432202	 94.774890	 86.865250	 171.419800	-52.371860	 68.259670	 71.746720	-3.086526	-13.019460	 27.696370	-22.571910	-6.019363	 9.615669	 6.437017	 35.671460	-0.771858	 2.830251	 35.756010	-7.813440	-2.350882	 35.473990	 5.254307
-1.374315	-9.717960	 0.625519	-19.880110	 8.155549	 1.855019	 4.707204	-24.337500	 174.002400	-1.971429	-43.424210	-0.365718	 0.689206	 85.643020	-1.283418	-2.384660	 28.715570	-0.005686	-2.380641	-25.076310	-178.598500	-0.092136	-43.901590	 0.162210	-1.388284	 86.390930	 1.786509	 2.407396	 18.737030	-0.198058	-7.490559	 10.356270	 0.094604	-11.876260	 7.529757	-1.971771	-14.002760	 4.824673	-0.338644	-113.368000	 89.283170	-155.618500	 53.669840	 56.982890	-76.861240	-3.343901	-4.072381	-24.064000	 4.778862	-4.999952	-5.372468	-3.812334	 37.924440	-2.927599	-2.450526	 36.184240	 0.754587	-1.378229	 35.397820	-2.634230	 0.379071	 1.739733	-0.545379	-3.083556	 7.074465	 0.500743	 94.817100	 86.834670	 171.299300	-51.646790	 67.409150	 71.764690	-2.956579	-13.156170	 28.706340	-22.232560	-6.014744	 9.621716	 6.437017	 35.671460	-0.771858	 2.830251	 35.756010	-7.813440	-2.350882	 35.473990	 5.254307
-1.371411	-9.713186	 0.620302	-20.034880	 8.357782	 1.790029	 4.750748	-25.618750	 174.018300	-2.146191	-45.077290	-0.481463	 0.729017	 86.104640	-1.399169	-2.383933	 28.872200	-0.009087	-2.284821	-26.474190	-178.493800	-0.127772	-45.502500	 0.238762	-1.571966	 86.763900	 2.016051	 2.406942	 19.500370	-0.183002	-7.363517	 10.993280	 0.193582	-11.641000	 7.623235	-1.955008	-13.717580	 4.939439	-0.317833	-112.493600	 89.222420	-156.359700	 52.365810	 56.220520	-76.556520	-3.755843	-4.029228	-25.909730	 4.313650	-4.978073	-5.378417	-3.812334	 37.924440	-2.927599	-2.450526	 36.184240	 0.754587	-1.378229	 35.397820	-2.634230	 0.384555	 1.258024	-0.561522	-3.000774	 7.093290	 0.632216	 94.867630	 86.766870	 171.103400	-50.621180	 66.362360	 72.049670	-2.597355	-13.365330	 30.095940	-21.836360	-6.009688	 9.627802	 6.437017	 35.671460	-0.771858	 2.830251	 35.756010	-7.813440	-2.350882	 35.473990	 5.254307
-1.368329	-9.707875	 0.615058	-20.207530	 8.628298	 1.692601	 4.807147	-27.036610	 174.099900	-2.366520	-46.770990	-0.621673	 1.116186	 86.576690	-1.883158	-2.383077	 29.055540	-0.013085	-2.221244	-27.927940	-178.446200	-0.145666	-47.175840	 0.306603	-2.180199	 87.144870	 2.662098	 2.406362	 20.172910	-0.169671	-7.213502	 11.677130	 0.310319	-11.365670	 7.621307	-1.931542	-13.383230	 4.938745	-0.310096	-112.100200	 89.167950	-156.588000	 51.106730	 55.612660	-76.291130	-4.208078	-4.009496	-27.803540	 3.948787	-4.961087	-5.382487	-3.812334	 37.924440	-2.927599	-2.450526	 36.184240	 0.754587	-1.378229	 35.397820	-2.634230	 0.422658	 0.737990	-0.609717	-2.896910	 7.026864	 0.843346	 94.899340	 86.673040	 170.893800	-49.499240	 65.493340	 72.263470	-2.121919	-13.554520	 31.395370	-21.492230	-6.021088	 9.616252	 6.437017	 35.671460	-0.771858	 2.830251	 35.756010	-7.813440	-2.350882	 35.473990	 5.254307
-1.364992	-9.701160	 0.608843	-20.423440	 8.933890	 1.678743	 4.799009	-28.777690	 174.031400	-2.631698	-48.794570	-0.849635	 1.274181	 87.145760	-2.188351	-2.382018	 29.278330	-0.017944	-2.109148	-29.659660	-178.388000	-0.065546	-49.199760	 0.487694	-2.598879	 87.603870	 3.200274	 2.405598	 20.850600	-0.156165	-6.999637	 12.554700	 0.402865	-10.998300	 7.549882	-1.962892	-12.960990	 4.824817	-0.313209	-112.028500	 89.112430	-156.451700	 49.704520	 55.033630	-76.001010	-4.695757	-4.010344	-29.878950	 3.658041	-4.968197	-5.381568	-3.812334	 37.924440	-2.927599	-2.450526	 36.184240	 0.754587	-1.378229	 35.397820	-2.634230	 0.483556	 0.127843	-0.684448	-2.764006	 6.796374	 1.095598	 94.875370	 86.538810	 170.710100	-48.119800	 64.560650	 72.328700	-1.587904	-13.734850	 32.802330	-21.115730	-6.013813	 9.624666	 6.437017	 35.671460	-0.771858	 2.830251	 35.756010	-7.813440	-2.350882	 35.473990	 5.254307
-1.360950	-9.691999	 0.600458	-20.704210	 9.333476	 1.747009	 4.763449	-31.164800	 173.812900	-2.993404	-51.543970	-1.187710	 2.612743	 87.925290	-3.727822	-2.380494	 29.590270	-0.024778	-2.061951	-31.975940	-178.352900	 0.086370	-51.920840	 0.702933	-4.566889	 88.231320	 5.292394	 2.404356	 21.727840	-0.138587	-6.694279	 13.719060	 0.499855	-10.480260	 7.458999	-2.056297	-12.381360	 4.594896	-0.324097	-112.303400	 89.059130	-155.915100	 47.914620	 54.566180	-75.562340	-5.697519	-3.850112	-32.298890	 3.085822	-4.951534	-5.385320	-3.812334	 37.924440	-2.927599	-2.450526	 36.184240	 0.754587	-1.378229	 35.397820	-2.634230	 0.571954	-0.574015	-0.794716	-2.574375	 6.316132	 1.386678	 94.779930	 86.352880	 170.564800	-46.174430	 63.429920	 72.031230	-0.936409	-13.900760	 34.501750	-20.633630	-6.014907	 9.624555	 6.437017	 35.671460	-0.771858	 2.830251	 35.756010	-7.813440	-2.350882	 35.473990	 5.254307
-1.356894	-9.682641	 0.591732	-20.954740	 9.813894	 1.827146	 4.638913	-33.689640	 173.572000	-3.502464	-54.389620	-1.712807	 5.545447	 88.703060	-6.949871	-2.379292	 29.827430	-0.029998	-2.016336	-34.624620	-178.342000	 0.169592	-54.622880	 0.863101	-8.629992	 88.889000	 9.417711	 2.403044	 22.489060	-0.123225	-6.391932	 14.776770	 0.548521	-9.955664	 7.327374	-2.154043	-11.779260	 4.302925	-0.338412	-112.740600	 89.021420	-155.249000	 46.446050	 54.399360	-75.027300	-6.891340	-3.518378	-34.322090	 2.339324	-4.961572	-5.384733	-3.812334	 37.924440	-2.927599	-2.450526	 36.184240	 0.754587	-1.378229	 35.397820	-2.634230	 0.676146	-1.282168	-0.931713	-2.370445	 5.827894	 1.736687	 94.662270	 86.175820	 170.475900	-44.336570	 62.588130	 71.466230	-0.315072	-13.987380	 35.873780	-20.236120	-6.020741	 9.619603	 6.437017	 35.671460	-0.771858	 2.830251	 35.756010	-7.813440	-2.350882	 35.473990	 5.254307
